<svg xmlns="http://www.w3.org/2000/svg" version="1.1" viewBox="0 0 744.09 500.36">
<g stroke="#000">
<path d="m189.91 128.29c-29.992-.21964-72.465 16.989-89.292 23.661-4.7881 1.8986-17.392 18.814-25.217 35.257-3.4995 7.3539-29.281 82.156-29.281 82.156s-12.143 57.839-10 92.125c2.1429 34.286 22.844 65.719 22.844 65.719s17.557 17.1 27 20.688c11.302 4.2935 31.854 6.9097 43 5.0312 25.866-4.3592 98.438-41.295 103.44-43.438 5-2.1429 9.9173-4.1 14.688-5.3125 3.5195 3.343 30.116 5.6295 43.688 1.3438 13.571-4.2857 20.918-7.9466 27.219-13.25 11.761-.63704 32.973-.60097 52.406-.5 19.394-.10095 40.544-.13689 52.281.5 6.2881 5.3021 13.612 8.9653 27.156 13.25s40.113 1.9985 43.625-1.3438c4.7606 1.2122 9.6351 3.1701 14.625 5.3125s77.436 39.079 103.25 43.438c11.123 1.878 31.627-.77002 42.906-5.0625 9.424-3.5866 26.938-20.656 26.938-20.656s20.674-31.41 22.812-65.688c2.1385-34.278-9.9688-92.125-9.9688-92.125s-25.726-74.773-29.219-82.125c-7.8092-16.44-21.039-34.913-25.817-36.811-12.279-4.8777-36.23-16.619-63.119-20.786-16.694-2.5875-36.596-2.9005-50.752 1.7238-9.5472 3.1188-17.962 11.176-24.281 14.777-7.3805 4.2055-37.514 22.432-54.622 26.717-24.915 4.1672-50.53 3.976-75.562 3.3176 0 0-58.828.68436-75.971-3.6014-17.143-4.2857-40.015-19.758-47.411-23.964-6.3317-3.6015-10.845-7.5258-24.955-14.165-10.907-6.361-22.634-6.1872-32.406-6.1876z" stroke-width="1px" fill="#c7c7c7"/>
<path d="m343.78 343.63c0 33.613-33.298 60.862-74.372 60.862-41.075 0-74.372-27.249-74.372-60.862s33.298-60.862 74.372-60.862c41.075 0 74.372 27.249 74.372 60.862z" stroke-width="0.999" fill="#e1e1e1"/>
<path d="m337.95 349.23c0 31.096-31.192 56.304-69.67 56.304-38.477 0-69.67-25.208-69.67-56.304s31.192-56.304 69.67-56.304c38.477 0 69.67 25.208 69.67 56.304z" stroke-width="1.1522" fill="#c9c9c9"/>
<path d="m190.28 73.422c-12.735.27868-24.74 2.6764-28.844 3.7812-6.566 1.7678-10.344 5.5625-10.344 5.5625l-32.062 30.031s-5.0439 5.188-5.549 5.8193c-6.4911 8.114-7.9538 8.203-8.964 10.223-1.0102 2.0203-4.3142 5.4294-5.9557 7.8285-1.0382 1.5173-3.766 6.4599-5.2812 7.7226s-21.469 52.094-21.469 52.094 23.015-24.473 38.04-30.871c32.52-13.846 70.519-19.707 105.23-13.043 27.173 5.2165 46.125 32.427 72.741 39.989 26.055 7.4029 54.067 4.3013 81.153 4.1434 29.584-.17244 60.098 2.4436 88.579-5.5586 26.585-7.4693 46.158-33.463 73.285-38.632 35.899-6.8396 76.518-4.8857 108.99 11.882 12.734 6.5757 28.545 32.152 28.545 32.152s-19.894-50.863-21.406-52.125c-1.1333-1.8938-4.0195-5.6714-4.5236-7.4388-.50399-1.7673-6.968-7.1976-7.976-9.2175-1.0082-2.0198-1.023-.23894-7.67-8.203-2.0015-2.398-5.549-6.7032-5.549-6.7032l-32-30.031s-3.791-3.7952-10.344-5.5625c-6.5528-1.7674-33.232-6.6993-50.906-1.25-13.665 4.2129-15.625 6.8125-15.625 6.8125s-7.5491 9.3576-13.094 11.125c-5.5446 1.7674-30.483 18.42-48.125 20.188-17.642 1.7674-34.795 4.5461-40.844 3.0312-6.0487-1.5149-39.906-1.0938-39.906-1.0938v-.0625s-33.939-.42148-40 1.0938c-6.0609 1.5152-23.229-1.2635-40.906-3.0312-17.678-1.7678-42.694-18.451-48.25-20.219-5.5558-1.7678-13.125-11.094-13.125-11.094s-1.885-3.0955-15.656-6.8125c-6.7087-1.8108-14.546-2.6985-22.188-2.5312z" stroke-width="1px" fill="#dadada"/>
<path d="m166.6 67.348 45.482 12.134-12.358 46.463-42.446-10.705z" stroke-width=".97984"/>
<path d="m157.71 112.57s6.4286-39.464 6.6071-42.143c.17857-2.6786 2.1429-19.107 2.6786-21.429.53572-2.3214 6.7857-7.6786 9.1072-7.6786h19.464s11.964 1.9643 12.321 10.357c.35714 8.3929.53572 17.321.53572 17.321l-3.2143 41.071z" stroke-width="1px" fill="#f8f8f8"/>
</g>
<path d="m552.87 127.8c-10.005-.0493-19.787.99256-27.75 3.5938-9.5472 3.1188-17.962 11.181-24.281 14.781-7.3805 4.2055-37.517 22.434-54.625 26.719-24.915 4.1672-50.53 3.9709-75.562 3.3125 0 0-58.826.69197-75.969-3.5938-17.143-4.2857-40.011-19.762-47.406-23.969-6.3317-3.6015-10.765-7.4196-24.876-14.059-10.907-6.361-22.727-6.2844-32.499-6.2847-29.992-.21964-72.454 15.848-89.281 22.52-4.7033 1.865-16.932 19.348-24.781 35.511-2.3007 5.8032-4.0312 10.156-4.0312 10.156s23.006-24.478 38.031-30.875c32.52-13.846 70.538-19.695 105.25-13.031 27.173 5.2165 46.103 32.407 72.719 39.969 26.055 7.4029 54.07 4.3141 81.156 4.1562 29.584-.17244 60.112 2.4397 88.594-5.5625 26.585-7.4693 46.155-33.457 73.281-38.625 35.899-6.8396 76.529-4.8927 109 11.875 12.734 6.5757 28.531 32.156 28.531 32.156s-1.7119-4.3326-4-10.125c-7.8541-16.22-20.679-34.103-25.375-35.969-12.279-4.8777-36.236-16.614-63.125-20.781-7.3038-1.132-15.218-1.8367-23-1.875z" fill-opacity=".45213" stroke="#000" stroke-width="1px" fill="#f3f3f3"/>
<g stroke="#000">
<g>
<path d="m99.857 144.53 1.0714-10.536s-.71429-9.6428 13.571-15.714c14.286-6.0714 26.429-13.75 43.036-17.143 16.607-3.3929 26.607-4.2857 34.643-4.1071 8.0357.17857 20.714 1.0714 22.143 1.6071 1.4286.53571 3.5714 6.9643 5.3572 7.3214 1.7857.35714 6.25 1.6071 6.25 1.6071l.53571 12.679-4.1071 14.107s-12.857-8.9286-46.607-4.2857-44.286 9.8214-44.286 9.8214-30.179 11.786-31.25 10.893c-1.0714-.89286-.35714-6.25-.35714-6.25z" stroke-width="1px" fill="#f1f1f1"/>
<path d="m531.72 78.447 43.58-11.734 12.503 46.437-43.58 11.734z" stroke-width="0.999"/>
<path d="m586.18 112.13s-6.4156-39.455-6.5938-42.133c-.17815-2.6779-2.1384-19.103-2.6732-21.424-.53453-2.3209-6.7719-7.6768-9.0888-7.6768h-19.425s-11.94 1.9638-12.297 10.355c-.35639 8.3909-.53463 17.317-.53463 17.317l3.2078 41.062z" stroke-width=".99887px" fill="#f8f8f8"/>
</g>
<g>
<path d="m640.38 144.59-1.0693-10.533s.71288-9.6406-13.544-15.711c-14.257-6.07-26.375-13.747-42.949-17.139-16.574-3.3921-26.553-4.2847-34.573-4.1062-8.0195.17852-20.672 1.0712-22.098 1.6068-1.4257.53558-3.5642 6.9627-5.3463 7.3197-1.7821.35706-6.2374 1.6068-6.2374 1.6068l-.53462 12.676 4.0988 14.104s12.831-8.9265 46.513-4.2847 44.196 9.8191 44.196 9.8191 30.118 11.783 31.187 10.89c1.0693-.89265.35639-6.2485.35639-6.2485z" stroke-width="0.999" fill="#f1f1f1"/>
<path d="m545.1 247.05c0 11.551-10.722 20.915-23.947 20.915-13.226 0-23.947-9.3641-23.947-20.915s10.722-20.915 23.947-20.915c13.226 0 23.947 9.3641 23.947 20.915z" stroke-width="0.999" fill="#0032b0"/>
<path d="m543.51 250.42c0 9.665-9.7716 17.5-21.826 17.5s-21.826-7.835-21.826-17.5 9.7716-17.5 21.826-17.5 21.826 7.835 21.826 17.5z" stroke-width="0.999" fill="#0e52ff"/>
<path d="m597.46 285.48c1.6742 10.856-8.1328 21.378-21.904 23.502-13.772 2.1239-26.293-4.9549-27.967-15.811-1.6742-10.856 8.1328-21.378 21.904-23.502 13.772-2.1239 26.293 4.9549 27.967 15.811z" stroke-width="1.3401" fill="#249500"/>
<path d="m596.17 289.71c1.705 9.9631-6.7645 19.726-18.917 21.805-12.153 2.0796-23.386-4.3112-25.091-14.274-1.705-9.9631 6.7645-19.726 18.917-21.805 12.153-2.0796 23.386 4.3112 25.091 14.274z" stroke-width="1.2092" fill="#35d900"/>
<path d="m603.83 193.63c2.9933 11.927-5.9115 24.439-19.89 27.948-13.978 3.5081-27.736-3.3168-30.729-15.244-2.9933-11.927 5.9115-24.439 19.889-27.948 13.978-3.5081 27.736 3.3168 30.729 15.244z" stroke-width="1.1814" fill="#d9c300"/>
<path d="m601.78 199.3c2.6577 10.994-5.1702 22.319-17.484 25.296-12.314 2.9769-24.451-3.5219-27.108-14.515-2.6577-10.994 5.1702-22.319 17.484-25.296 12.314-2.9769 24.451 3.5219 27.108 14.515z" stroke-width="1.0623" fill="#ffe823"/>
<path d="m654.33 233.09c4.1197 10.633-3.0421 23.648-15.996 29.072-12.954 5.4234-26.795 1.2004-30.915-9.4321-4.1197-10.633 3.0421-23.648 15.996-29.072 12.954-5.4234 26.795-1.2005 30.915 9.4321z" stroke-width="1.2425" fill="#ab0b00"/>
<path d="m652.81 237.3c3.5879 9.3351-2.6494 20.763-13.931 25.524-11.282 4.7616-23.336 1.054-26.924-8.2811-3.5879-9.3351 2.6494-20.763 13.931-25.524 11.282-4.7616 23.336-1.054 26.924 8.2811z" stroke-width="1.0865" fill="#ff1303"/>
<path d="m328.12 350.19c0 26.779-26.965 48.487-60.228 48.487s-60.228-21.709-60.228-48.487c0-26.779 26.965-48.487 60.228-48.487s60.228 21.709 60.228 48.487z" stroke-width="1.0107" fill="#181818"/>
<path d="m323.52 351.89c0 25.539-25.074 46.242-56.004 46.242s-56.004-20.703-56.004-46.242 25.074-46.242 56.004-46.242 56.004 20.703 56.004 46.242z" stroke-width="1.2563" fill="#999"/>
<path d="m320.85 355.71c0 23.041-23.957 41.72-53.509 41.72s-53.509-18.679-53.509-41.72 23.957-41.72 53.509-41.72 53.509 18.679 53.509 41.72z" stroke-width="1.1664" fill="#848484"/>
<path d="m412.24 247.04c0 18.481-18.425 33.463-41.154 33.463s-41.154-14.982-41.154-33.463 18.425-33.463 41.154-33.463 41.154 14.982 41.154 33.463z" stroke-width="1.385" fill="#353535"/>
<path d="m404.99 246.86c0 15.094-15.139 27.33-33.813 27.33-18.675 0-33.813-12.236-33.813-27.33s15.139-27.33 33.813-27.33c18.675 0 33.813 12.236 33.813 27.33z" stroke-width="0.999" fill="#cacaca"/>
</g>
<g stroke-width="1px">
<path d="m267.36 313.7 10.67.50507s3.2198 1.2627 3.7881 4.4194c.41789 2.3216 2.9042 14.142 3.6618 14.773.75762.63134 4.1669 6.566 7.1973 6.9448 3.0305.37881 23.36 3.283 24.622 4.4194 1.2627 1.1364 3.1567 6.0609 3.1567 6.0609l.25254 12.248s-.75761 3.7881-1.894 4.4194c-1.1364.63135-22.097 2.6516-22.097 2.6516s-6.3134 1.5152-7.4499 5.177c-1.1364 3.6618-3.4093 18.814-4.4194 19.824-1.0102 1.0102-2.3991 3.1567-5.3033 3.5355-2.9042.37881-17.173.63135-17.173.63135s-5.3033-1.1364-6.566-2.9042-4.4194-17.425-4.4194-17.425-2.0203-5.5558-8.3338-7.1973-18.183-.25254-21.718-1.894c-3.5355-1.6415-5.9346-4.672-6.1872-7.3236-.25254-2.6516-1.389-11.869-.88388-12.627.50507-.75761 2.9042-5.3033 4.2932-5.4296 1.389-.12627 20.456-2.2728 22.602-3.9143 2.1466-1.6415 6.9448-5.4296 7.1973-7.955.25253-2.5254 1.3589-16.723 2.336-16.731.80286-.72867 1.4766-.94007 2.0996-1.2698 1.0476-.55455 3.7921-.70026 7.3074-.75048 4.4194-.0631 7.2605-.1894 7.2605-.1894z" fill="#999"/>
<path d="m296.72 236.7s-4.7058-.14476-5.8422-.0185c-1.1364.12627-11.301 1.2627-11.68 12.059-.3788 10.796 12.014 12.95 12.014 12.95l5.4742.11095 5.7637.0185s12.608-1.7155 12.798-12.638c.18941-10.922-13.006-12.438-13.006-12.438z" fill="#f1f1f1"/>
<path d="m445.47 237.23s-4.7058-.14476-5.8422-.0185c-1.1364.12627-11.301 1.2627-11.68 12.059-.3788 10.796 12.014 12.95 12.014 12.95l5.4742.11095 5.7637.0185s12.608-1.7155 12.798-12.638c.18941-10.922-13.006-12.438-13.006-12.438z" fill="#f1f1f1"/>
<path d="m301.82 246.05-.26785 13.75-13.75-7.3214z" fill="#d9d9d9"/>
<path d="m441.15 246.36-.66964 13.125 14.42-6.25z" fill="#d9d9d9"/>
</g>
<g>
<path d="m539.24 338.04c0 28.714-32.958 51.991-73.615 51.991-40.656 0-73.615-23.277-73.615-51.991s32.958-51.991 73.615-51.991c40.656 0 73.615 23.277 73.615 51.991z" stroke-width="1.0358" fill="#dadada"/>
<path d="m513.73 352.89c0 21.777-21.168 39.431-47.281 39.431s-47.281-17.654-47.281-39.431 21.168-39.431 47.281-39.431 47.281 17.654 47.281 39.431z" stroke-width="1.0873" fill="#181818"/>
<path d="m509.15 352.59c0 19.927-19.324 36.081-43.16 36.081-23.837 0-43.16-16.154-43.16-36.081s19.324-36.081 43.16-36.081c23.837 0 43.16 16.154 43.16 36.081z" stroke-width="1.0938" fill="#757575"/>
<path d="m236.95 257.58c-5.565 30.983-42.282 49.845-82.01 42.129-39.728-7.7156-67.422-39.087-61.857-70.07s42.282-49.845 82.01-42.129c39.728 7.7156 67.422 39.087 61.857 70.07z" stroke-width="1.338" fill="#dedede"/>
<path d="m213.93 255.75c0 21.878-21.296 39.614-47.566 39.614s-47.566-17.736-47.566-39.614 21.296-39.614 47.566-39.614 47.566 17.736 47.566 39.614z" stroke-width="1.1781" fill="#181818"/>
<path d="m209.87 255.45c0 19.927-19.324 36.081-43.16 36.081-23.837 0-43.16-16.154-43.16-36.081s19.324-36.081 43.16-36.081c23.837 0 43.16 16.154 43.16 36.081z" stroke-width="1.0938" fill="#757575"/>
<path d="m208.43 268.31c0 21.616-20.393 39.139-45.549 39.139s-45.549-17.523-45.549-39.139 20.393-39.139 45.549-39.139 45.549 17.523 45.549 39.139z" stroke-width="1.3221" fill="#868686"/>
<path d="m510.73 370.09c0 20.394-19.733 36.927-44.075 36.927s-44.075-16.533-44.075-36.927 19.733-36.927 44.075-36.927 44.075 16.533 44.075 36.927z" stroke-width="1.0992" fill="#868686"/>
</g>
</g>
<g fill="#686868">
<g transform="matrix(1.2295 0 0 .81331 -11.036 -267.3)">
<path d="m283.52 599.05h-1.3496v-5.0863c-.4931.46109-1.0742.80209-1.7435 1.023v-1.2247c.35222-.11526.73485-.3338 1.1479-.6556.41305-.32179.69642-.69721.85011-1.1263h1.0951z" fill="#686868"/>
</g>
<g transform="matrix(1.1235 0 0 .89005 -11.036 -267.3)">
<path d="m374.13 545.74v1.101h-4.1551c.045-.41622.17998-.81064.40496-1.1833.22498-.37263.66932-.86688 1.333-1.4828.53433-.49777.86196-.83525.98289-1.0124.16311-.24467.24466-.48652.24467-.72557-.00001-.26435-.071-.46753-.21303-.60956-.14203-.14201-.33818-.21302-.58847-.21303-.24748.000010-.44434.0745-.59058.22358-.14624.14905-.23061.39653-.2531.74244l-1.1812-.11812c.0703-.65244.29107-1.1207.66229-1.4047.37122-.28403.83525-.42605 1.3921-.42606.61026.000010 1.0898.16453 1.4385.49356.34872.32904.52308.73822.52309 1.2276-.00001.27842-.0499.54348-.14976.79517-.0998.25171-.25803.51536-.47457.79096-.14343.1828-.40216.44574-.77618.78884-.37404.3431-.61097.57089-.71081.68338-.0998.11249-.18069.22217-.24255.32904z" fill="#686868"/>
</g>
<g transform="matrix(1.1424 0 0 .87533 -11.036 -267.3)">
<path d="m302.35 627 1.1483-.13932c.0366.29271.13509.51646.29552.67125.16042.1548.35462.23219.58259.23219.24486 0 .45102-.0929.61848-.27863.16746-.18575.25119-.43624.25119-.75146 0-.29833-.0802-.53474-.24064-.70924-.16042-.17449-.35603-.26174-.58681-.26175-.15198.000010-.33352.0296-.5446.0887l.13087-.96677c.32085.008.56571-.0612.73458-.20897.16886-.14775.25329-.34406.2533-.58892-.000010-.20827-.0619-.37432-.18576-.49816-.12384-.12383-.28848-.18575-.49393-.18576-.20265.00001-.37574.0704-.51927.21109-.14354.14073-.23079.34618-.26174.61636l-1.0934-.18575c.076-.37432.19068-.67335.34407-.89711.15338-.22374.36728-.39964.64169-.52771.27441-.12805.58189-.19208.92244-.19208.58259 0 1.0498.18576 1.4016.55726.28988.30396.43483.64733.43483 1.0301 0 .54319-.29693.97662-.89077 1.3003.35461.076.63817.24626.85067.51082.21248.26456.31873.584.31873.95832 0 .54319-.19842 1.0062-.59525 1.3889-.39685.38277-.89078.57415-1.4818.57415-.56008 0-1.0245-.16112-1.3932-.48338-.36869-.32225-.58259-.74372-.6417-1.2644z" fill="#686868"/>
</g>
<g transform="matrix(1.1533 0 0 .86706 -11.036 -267.3)">
<path d="m361.95 634.71v-1.2123h-2.4657v-1.0109l2.6136-3.8259h.96982v3.8218h.74792v1.015h-.74792v1.2123zm0-2.2273v-2.0588l-1.3849 2.0588z" fill="#686868"/>
</g>
</g>
<path d="m206.85 269.9c0 20.137-19.639 36.461-43.865 36.461s-43.865-16.324-43.865-36.461 19.639-36.461 43.865-36.461 43.865 16.324 43.865 36.461z" stroke="#000" stroke-width="1.2523" fill="#999"/>
<path d="m509.52 371.28c0 19.26-19.147 34.873-42.766 34.873s-42.766-15.613-42.766-34.873 19.147-34.873 42.766-34.873 42.766 15.613 42.766 34.873z" stroke="#000" stroke-width="1.2093" fill="#999"/>
<g stroke="#000" stroke-width="0.999" fill="#b0b0b0">
<path d="m163.34 245.64c0 .90657-.87625 1.6415-1.9572 1.6415-1.0809 0-1.9572-.73493-1.9572-1.6415 0-.90658.87626-1.6415 1.9572-1.6415s1.9572.73492 1.9572 1.6415z"/>
<path d="m196.68 272.54c0 .90657-.87625 1.6415-1.9572 1.6415-1.0809 0-1.9572-.73493-1.9572-1.6415 0-.90658.87626-1.6415 1.9572-1.6415s1.9572.73492 1.9572 1.6415z"/>
<path d="m163.59 296.66c0 .90657-.87625 1.6415-1.9572 1.6415-1.0809 0-1.9572-.73493-1.9572-1.6415 0-.90658.87626-1.6415 1.9572-1.6415s1.9572.73492 1.9572 1.6415z"/>
<path d="m132.91 270.77c0 .90657-.87625 1.6415-1.9572 1.6415-1.0809 0-1.9572-.73493-1.9572-1.6415 0-.90658.87626-1.6415 1.9572-1.6415s1.9572.73492 1.9572 1.6415z"/>
</g>
<g>
<g stroke="#000" stroke-width="0.999">
<path d="m469.42 349.94c0 .90657-.87625 1.6415-1.9572 1.6415-1.0809 0-1.9572-.73493-1.9572-1.6415 0-.90658.87626-1.6415 1.9572-1.6415s1.9572.73492 1.9572 1.6415z" fill="#afafaf"/>
<path d="m499.6 374.19c0 .90657-.87625 1.6415-1.9572 1.6415-1.0809 0-1.9572-.73493-1.9572-1.6415 0-.90658.87626-1.6415 1.9572-1.6415s1.9572.73492 1.9572 1.6415z" fill="#979797"/>
<path d="m468.66 395.9c0 .90657-.87625 1.6415-1.9572 1.6415-1.0809 0-1.9572-.73493-1.9572-1.6415 0-.90658.87626-1.6415 1.9572-1.6415s1.9572.73492 1.9572 1.6415z" fill="#b0b0b0"/>
<path d="m440 372.54c0 .90657-.87625 1.6415-1.9572 1.6415-1.0809 0-1.9572-.73493-1.9572-1.6415 0-.90658.87626-1.6415 1.9572-1.6415s1.9572.73492 1.9572 1.6415z" fill="#b0b0b0"/>
</g>
<g fill="#249500" transform="matrix(1.0166 0 0 .98365 -11.036 -267.3)">
<path d="m580.25 576.29h-9.6527l-1.5233 4.3614h-6.2053l8.867-23.939h7.3598l8.867 23.939h-6.2053zm-8.1134-4.4415h6.5581l-3.271-9.5244z" fill="#249500"/>
</g>
<g fill="#0032b0" transform="matrix(1.0166 0 0 .98365 -11.383 -267.04)">
<path d="m528.01 524.78 8.3058 12.218h-6.4298l-5.596-8.1776-5.5479 8.1776h-6.47l8.3058-12.218-7.9851-11.721h6.4458l5.2432 7.7126 5.2272-7.7126h6.4779z" fill="#0032b0"/>
</g>
<g fill="#d9c300" transform="matrix(1.0166 0 0 .98365 -12.109 -267.3)">
<path d="m569.22 466.72h6.7505l5.4517 8.5303 5.4517-8.5303h6.7665l-9.1236 13.854v10.086h-6.1732v-10.086z" fill="#d9c300"/>
</g>
<g fill="#ab0b00" transform="matrix(1.0165 .013544 -.013105 .98356 -11.604 -267.68)">
<path d="m640.91 510.45c.9908.000010 1.7421-.21775 2.2538-.65328.51172-.43551.76758-1.0779.7676-1.9272-.00002-.83836-.25588-1.478-.7676-1.919-.51175-.44094-1.263-.66142-2.2538-.66144h-3.4787v5.1609zm.21232 10.665c1.263 0 2.213-.26675 2.8499-.80027.63693-.53351.95541-1.3392.95542-2.4171-.000010-1.0561-.31577-1.8482-.94725-2.3763-.63152-.52806-1.5842-.79209-2.8581-.7921h-3.691v6.3858zm5.8468-8.7703c1.3501.39198 2.3953 1.116 3.1357 2.1722.74036 1.0562 1.1106 2.3518 1.1106 3.887-.00002 2.3518-.79485 4.1048-2.3845 5.2589-1.5897 1.1541-4.0068 1.7312-7.2514 1.7312h-10.436v-24.384h9.4399c3.3862.00003 5.8387.51176 7.3576 1.5352 1.5189 1.0235 2.2783 2.6621 2.2783 4.9159-.00002 1.1868-.27767 2.1967-.83293 3.0296-.55531.83294-1.361 1.4508-2.4171 1.8537z" fill="#ab0b00"/>
</g>
<path d="m100.93 133.99s-.71429-9.6428 13.571-15.714c14.286-6.0714 26.429-13.75 43.036-17.143 16.607-3.3929 26.607-4.2857 34.643-4.1071 8.0357.17857 20.714 1.0714 22.143 1.6071 1.4286.53571.51857 3.2878.0539 5.0486-.36087 1.3673-1.1999 2.9961-1.1999 2.9961l-.85325 3.7135-.19279 3.248s-4.2288-4.4537-37.768 1.5227c-31.317 5.5804-32.038 6.0334-32.038 6.0334s-11.491 3.0731-17.865 5.8421c-1.2792.55564-17.455 5.2678-17.455 5.2678-2.2539.55781-4.348 1.59-6.0743 1.685z" stroke="#000" stroke-width="1px" fill="#f8f8f8"/>
<path d="m634.94 134.32 4.3772-.26539s.71288-9.6406-13.544-15.711c-14.257-6.07-26.375-13.747-42.949-17.139-16.574-3.3921-26.553-4.2847-34.573-4.1062-8.0195.17852-18.943.93949-20.369 1.4751.66279 3.4101.4635 7.015 1.2413 9.7695l.88455 4.7288s2.4741-2.7658 36.156 1.876 36.607 6.6048 36.607 6.6048 10.316 4.0989 11.633 4.551c3.1228 1.0716 20.535 8.2157 20.535 8.2157z" stroke="#000" stroke-width="0.999" fill="#f8f8f8"/>
<g fill="#85a7ff" transform="matrix(1.0166 0 0 .98365 -11.162 -266.03)">
<path d="m528.01 524.78 8.3058 12.218h-6.4298l-5.596-8.1776-5.5479 8.1776h-6.47l8.3058-12.218-7.9851-11.721h6.4458l5.2432 7.7126 5.2272-7.7126h6.4779z" fill="#85a7ff"/>
</g>
<g fill="#fff9c1" transform="matrix(1.0166 0 0 .98365 -10.857 -265.66)">
<path d="m569.22 466.72h6.7505l5.4517 8.5303 5.4517-8.5303h6.7665l-9.1236 13.854v10.086h-6.1732v-10.086z" fill="#fff9c1"/>
</g>
<g fill="#adff92" transform="matrix(1.0166 0 0 .98365 -10.184 -265.87)">
<path d="m580.25 576.29h-9.6527l-1.5233 4.3614h-6.2053l8.867-23.939h7.3598l8.867 23.939h-6.2053zm-8.1134-4.4415h6.5581l-3.271-9.5244z" fill="#adff92"/>
</g>
<g fill="#ffa19b" transform="matrix(1.0165 .013544 -.013105 .98356 -10.089 -266.79)">
<path d="m640.91 510.45c.9908.000010 1.7421-.21775 2.2538-.65328.51172-.43551.76758-1.0779.7676-1.9272-.00002-.83836-.25588-1.478-.7676-1.919-.51175-.44094-1.263-.66142-2.2538-.66144h-3.4787v5.1609zm.21232 10.665c1.263 0 2.213-.26675 2.8499-.80027.63693-.53351.95541-1.3392.95542-2.4171-.000010-1.0561-.31577-1.8482-.94725-2.3763-.63152-.52806-1.5842-.79209-2.8581-.7921h-3.691v6.3858zm5.8468-8.7703c1.3501.39198 2.3953 1.116 3.1357 2.1722.74036 1.0562 1.1106 2.3518 1.1106 3.887-.00002 2.3518-.79485 4.1048-2.3845 5.2589-1.5897 1.1541-4.0068 1.7312-7.2514 1.7312h-10.436v-24.384h9.4399c3.3862.00003 5.8387.51176 7.3576 1.5352 1.5189 1.0235 2.2783 2.6621 2.2783 4.9159-.00002 1.1868-.27767 2.1967-.83293 3.0296-.55531.83294-1.361 1.4508-2.4171 1.8537z" fill="#ffa19b"/>
</g>
<path d="m267.37 316.97 10.269.4861s3.0989 1.2153 3.6458 4.2534c.40219 2.2344 2.7951 13.611 3.5242 14.219.72917.60763 4.0104 6.3194 6.927 6.6839 2.9166.36458 22.482 3.1597 23.698 4.2534 1.2153 1.0937 3.0382 5.8333 3.0382 5.8333l.24305 11.788s-.72915 3.6458-1.8229 4.2534c-1.0937.60764-21.267 2.552-21.267 2.552s-6.0763 1.4583-7.17 4.9826c-1.0937 3.5242-3.2812 18.107-4.2534 19.08-.97222.97221-2.309 3.0382-5.1041 3.4027-2.7951.36459-16.528.60764-16.528.60764s-5.1041-1.0937-6.3194-2.7951-4.2534-16.771-4.2534-16.771-1.9444-5.3472-8.0207-6.927-17.5-.24306-20.903-1.8229c-3.4027-1.5798-5.7117-4.4965-5.9548-7.0485-.24305-2.552-1.3368-11.423-.85068-12.153.4861-.72915 2.7951-5.1041 4.1319-5.2256 1.3368-.12153 19.687-2.1875 21.753-3.7673 2.0659-1.5798 6.684-5.2256 6.927-7.6562.24304-2.4305 1.3079-16.094 2.2482-16.102.77271-.7013 1.4212-.90476 2.0207-1.2221 1.0083-.53372 3.6497-.67396 7.033-.7223 4.2534-.0607 6.9878-.18228 6.9878-.18228z" stroke="#000" stroke-width=".96244px" fill="#868686"/>
</g>
<g font-size="21.333px" font-family="sans-serif" fill="#000000">
<text style="word-spacing:0px;letter-spacing:0px" xml:space="preserve" line-height="125%" y="28.971003" x="33.895863"><tspan x="33.895863" y="28.971003">Left Trigger</tspan></text>
<text style="word-spacing:0px;letter-spacing:0px" xml:space="preserve" line-height="125%" y="69.173073" x="10.247587"><tspan y="69.173073" x="10.247587">Left Bumper</tspan></text>
<text style="word-spacing:0px;letter-spacing:0px" xml:space="preserve" line-height="125%" y="29.759275" x="587.26556"><tspan x="587.26556" y="29.759275">Right Trigger</tspan></text>
<text style="word-spacing:0px;letter-spacing:0px" xml:space="preserve" line-height="125%" y="68.384789" x="589.63037"><tspan y="68.384789" x="589.63037">Right Bumper</tspan></text>
</g>
<g stroke="#000" stroke-width="2" fill="none">
<path d="m72.521 79.421 75.679 32.319"/>
<path d="m163.17 26.606 19.707 37.049"/>
<path d="m578.59 25.03-18.919 40.202"/>
<path d="m652.69 77.844-66.51 34.286"/>
</g>
<g font-size="21.333px" font-family="sans-serif" fill="#000000">
<text style="word-spacing:0px;letter-spacing:0px" xml:space="preserve" line-height="125%" y="93.975746" x="342.72516"><tspan x="342.72516" y="93.975746">Home</tspan></text>
<text style="word-spacing:0px;letter-spacing:0px" xml:space="preserve" line-height="125%" y="67.596519" x="243.57724"><tspan x="243.57724" y="67.596519">Back</tspan></text>
<text style="word-spacing:0px;letter-spacing:0px" xml:space="preserve" line-height="125%" y="72.32618" x="434.34003"><tspan x="434.34003" y="72.32618">Start</tspan></text>
</g>
<g stroke="#000" stroke-width="2" fill="none">
<path d="m271.17 80.209 22.86 164.95"/>
<path d="m371.01 103.11-.51778 144.21"/>
<path d="m465.23 82.016-15.97 162.77"/>
</g>
<g font-size="21.333px" font-family="sans-serif" fill="#000000">
<text style="word-spacing:0px;letter-spacing:0px" xml:space="preserve" line-height="125%" y="484.59445" x="22.860004"><tspan x="22.860004" y="484.59445">Left Stick</tspan></text>
<text style="word-spacing:0px;letter-spacing:0px" xml:space="preserve" line-height="125%" y="473.55862" x="260.91931"><tspan x="260.91931" y="473.55862">D-Pad</tspan></text>
<text style="word-spacing:0px;letter-spacing:0px" xml:space="preserve" line-height="125%" y="474.34689" x="447.74069"><tspan x="447.74069" y="474.34689">Right Stick</tspan></text>
</g>
<g stroke="#000" stroke-width="2" fill="none">
<path d="m73.31 456.22 85.92-181.31"/>
<path d="m289.3 448.33-20.495-85.134"/>
<path d="m499.77 445.97-31.53-67.79"/>
</g>
</svg>
